<svg width="29" height="29" viewBox="0 0 29 29" fill="none" xmlns="http://www.w3.org/2000/svg">
<path d="M8.6724 12.0218C10.5216 12.0218 12.0206 10.5228 12.0206 8.67362C12.0206 6.82447 10.5216 5.32544 8.6724 5.32544C6.82325 5.32544 5.32422 6.82447 5.32422 8.67362C5.32422 10.5228 6.82325 12.0218 8.6724 12.0218Z" fill="white"/>
<path d="M8.6724 23.6746C10.5216 23.6746 12.0206 22.1756 12.0206 20.3265C12.0206 18.4773 10.5216 16.9783 8.6724 16.9783C6.82325 16.9783 5.32422 18.4773 5.32422 20.3265C5.32422 22.1756 6.82325 23.6746 8.6724 23.6746Z" fill="white"/>
<path d="M20.3267 12.0218C22.1758 12.0218 23.6749 10.5228 23.6749 8.67362C23.6749 6.82447 22.1758 5.32544 20.3267 5.32544C18.4775 5.32544 16.9785 6.82447 16.9785 8.67362C16.9785 10.5228 18.4775 12.0218 20.3267 12.0218Z" fill="white"/>
<path d="M20.3267 23.6746C22.1758 23.6746 23.6749 22.1756 23.6749 20.3265C23.6749 18.4773 22.1758 16.9783 20.3267 16.9783C18.4775 16.9783 16.9785 18.4773 16.9785 20.3265C16.9785 22.1756 18.4775 23.6746 20.3267 23.6746Z" fill="white"/>
</svg>
