<svg width="40" height="40" viewBox="0 0 40 40" fill="none" xmlns="http://www.w3.org/2000/svg">
<path d="M20 37.7747C19.4305 37.7747 18.8815 37.5684 18.4536 37.1936C16.8377 35.7806 15.2798 34.4528 13.9053 33.2816L13.8983 33.2755C9.86845 29.8413 6.38854 26.8756 3.96728 23.9542C1.26068 20.6882 0 17.5916 0 14.2087C0 10.9219 1.12701 7.88971 3.17321 5.67017C5.24382 3.42438 8.08501 2.1875 11.1743 2.1875C13.4832 2.1875 15.5978 2.91748 17.4591 4.35699C18.3984 5.08362 19.2498 5.9729 20 7.01019C20.7504 5.9729 21.6015 5.08362 22.5412 4.35699C24.4024 2.91748 26.517 2.1875 28.8259 2.1875C31.9149 2.1875 34.7564 3.42438 36.827 5.67017C38.8732 7.88971 39.9999 10.9219 39.9999 14.2087C39.9999 17.5916 38.7395 20.6882 36.0329 23.9539C33.6117 26.8756 30.1321 29.841 26.1029 33.2748C24.7259 34.4479 23.1655 35.7779 21.546 37.1942C21.1184 37.5684 20.5691 37.7747 20 37.7747ZM11.1743 4.53064C8.74724 4.53064 6.51763 5.49927 4.89562 7.2583C3.24951 9.04388 2.34283 11.5121 2.34283 14.2087C2.34283 17.0538 3.40026 19.5984 5.77117 22.4591C8.06273 25.2243 11.4712 28.129 15.4178 31.4923L15.4251 31.4984C16.8048 32.6743 18.3688 34.0073 19.9966 35.4306C21.6342 34.0045 23.2006 32.6694 24.5831 31.4917C28.5293 28.1284 31.9375 25.2243 34.2291 22.4591C36.5997 19.5984 37.6571 17.0538 37.6571 14.2087C37.6571 11.5121 36.7504 9.04388 35.1043 7.2583C33.4826 5.49927 31.2527 4.53064 28.8259 4.53064C27.048 4.53064 25.4156 5.09583 23.9743 6.21033C22.6898 7.20398 21.795 8.46008 21.2704 9.33899C21.0006 9.79095 20.5258 10.0607 20 10.0607C19.4741 10.0607 18.9993 9.79095 18.7295 9.33899C18.2052 8.46008 17.3105 7.20398 16.0257 6.21033C14.5843 5.09583 12.9519 4.53064 11.1743 4.53064Z" fill="#303030"/>
</svg>
