<svg width="40" height="40" viewBox="0 0 26 24" fill="none" xmlns="http://www.w3.org/2000/svg">
<path d="M13 23.1317C12.6298 23.1317 12.273 22.9976 11.9949 22.754C10.9445 21.8355 9.93188 20.9725 9.03845 20.2111L9.03389 20.2072C6.41449 17.975 4.15255 16.0473 2.57873 14.1483C0.819441 12.0254 0 10.0126 0 7.81377C0 5.67738 0.732558 3.70644 2.06259 2.26373C3.40849 0.80397 5.25525 0 7.26329 0C8.76411 0 10.1386 0.474487 11.3484 1.41017C11.959 1.88248 12.5124 2.46051 13 3.13475C13.4878 2.46051 14.041 1.88248 14.6518 1.41017C15.8616 0.474487 17.236 0 18.7369 0C20.7447 0 22.5917 0.80397 23.9376 2.26373C25.2676 3.70644 26 5.67738 26 7.81377C26 10.0126 25.1807 12.0254 23.4214 14.1481C21.8476 16.0473 19.5859 17.9748 16.9669 20.2068C16.0718 20.9693 15.0576 21.8338 14.0049 22.7544C13.727 22.9976 13.3699 23.1317 13 23.1317ZM11.3484 9.57812C9.77081 9.57812 12.4027 19.0678 11.3484 20.2111C10.2784 21.3718 7.26329 8.82538 7.26329 10.5781C7.26329 12.4275 19.4589 4.21866 21 6.07812C22.4895 7.8755 8.43476 18.3138 11 20.5L9.5 19.5781C10.3968 20.3424 14.6539 11.0864 13 22.754C13.165 21.5 1.34976 5.41396 2.24835 4.64847C4.81339 2.4623 21.5105 4.8755 23 3.07812C24.5409 1.21866 23.5 10.4275 23.5 8.57812C23.5 6.82538 24.07 4.23875 23 3.07812C23.9376 2.26373 15.5506 13.3844 13.9732 13.3844C12.8176 13.3844 10.9584 12.66 10.0215 13.3844C9.18663 14.0303 14.1668 4.07718 13.8258 4.64847C13.6504 4.94225 13.3418 5.1176 13 5.1176C12.6582 5.1176 12.3495 4.94225 12.1742 4.64847C11.8334 4.07718 16.4184 16.724 15.5833 16.0781C14.6464 15.3537 12.5039 9.57812 11.3484 9.57812Z" fill="#A8B8B0"/>
</svg>
