<svg width="663" height="223" viewBox="0 0 663 223" fill="none" xmlns="http://www.w3.org/2000/svg">
<path d="M611.355 223L620.841 168.54H604.796L608.193 149.802H662.652L659.256 168.54H643.094L633.607 223H611.355ZM603.508 155.072L553.967 149.802H604.445L603.508 155.072ZM601.634 166.315L551.976 161.045H602.454L601.634 166.315ZM615.688 177.558L566.03 172.288H616.625L615.688 177.558ZM613.697 188.802L564.039 183.531H614.634L613.697 188.802ZM611.706 200.045L562.048 194.775H612.643L611.706 200.045ZM609.715 211.288L560.057 206.018H610.652L609.715 211.288ZM607.724 222.649L558.066 217.378H608.661L607.724 222.649Z" fill="#A8B8B0"/>
<path d="M537.933 223L550.816 149.802H573.068L560.185 223H537.933ZM546.248 155.072L496.708 149.802H547.185L546.248 155.072ZM544.374 166.315L494.717 161.045H545.194L544.374 166.315ZM542.383 177.558L492.726 172.288H543.32L542.383 177.558ZM540.392 188.802L490.735 183.531H541.329L540.392 188.802ZM538.401 200.045L488.744 194.775H539.338L538.401 200.045ZM536.41 211.288L486.753 206.018H537.347L536.41 211.288ZM534.419 222.649L484.762 217.378H535.356L534.419 222.649Z" fill="#A8B8B0"/>
<path d="M447.236 223L460.119 149.802H496.191C501.891 149.802 505.99 150.777 508.488 152.729C510.987 154.681 512.236 157.687 512.236 161.748C512.236 167.994 510.831 172.991 508.02 176.739C505.287 180.408 502.203 182.673 498.767 183.531L498.65 184.234C502.476 184.937 505.17 186.537 506.731 189.036C508.371 191.534 509.191 194.579 509.191 198.171C509.191 202.543 508.371 206.643 506.731 210.468C505.17 214.216 502.749 217.261 499.47 219.604C496.269 221.868 492.209 223 487.29 223H447.236ZM455.551 155.072L406.01 149.802H456.488L455.551 155.072ZM453.677 166.315L404.019 161.045H454.497L453.677 166.315ZM477.569 176.739H484.479C486.509 176.739 487.915 175.958 488.695 174.396C489.476 172.835 489.867 171.078 489.867 169.126C489.867 168.111 489.632 167.33 489.164 166.784C488.695 166.159 487.836 165.847 486.587 165.847H479.56L477.569 176.739ZM451.686 177.558L402.028 172.288H452.623L451.686 177.558ZM449.695 188.802L400.037 183.531H450.632L449.695 188.802ZM472.416 205.784H481.083C483.191 205.784 484.713 204.964 485.65 203.324C486.587 201.685 487.056 199.772 487.056 197.585C487.056 196.492 486.782 195.594 486.236 194.892C485.689 194.189 484.713 193.838 483.308 193.838H474.524L472.416 205.784ZM447.704 200.045L398.046 194.775H448.641L447.704 200.045ZM445.713 211.288L396.055 206.018H446.65L445.713 211.288ZM443.722 222.649L394.064 217.378H444.659L443.722 222.649Z" fill="#A8B8B0"/>
<path d="M356.538 223L369.421 149.802H405.493C411.193 149.802 415.292 150.777 417.79 152.729C420.289 154.681 421.538 157.687 421.538 161.748C421.538 167.994 420.133 172.991 417.322 176.739C414.589 180.408 411.505 182.673 408.07 183.531L407.953 184.234C411.778 184.937 414.472 186.537 416.034 189.036C417.673 191.534 418.493 194.579 418.493 198.171C418.493 202.543 417.673 206.643 416.034 210.468C414.472 214.216 412.052 217.261 408.772 219.604C405.571 221.868 401.511 223 396.592 223H356.538ZM364.853 155.072L315.313 149.802H365.79L364.853 155.072ZM362.979 166.315L313.322 161.045H363.799L362.979 166.315ZM386.871 176.739H393.781C395.811 176.739 397.217 175.958 397.998 174.396C398.778 172.835 399.169 171.078 399.169 169.126C399.169 168.111 398.935 167.33 398.466 166.784C397.998 166.159 397.139 165.847 395.89 165.847H388.862L386.871 176.739ZM360.988 177.558L311.331 172.288H361.925L360.988 177.558ZM358.997 188.802L309.34 183.531H359.934L358.997 188.802ZM381.718 205.784H390.385C392.493 205.784 394.016 204.964 394.953 203.324C395.89 201.685 396.358 199.772 396.358 197.585C396.358 196.492 396.085 195.594 395.538 194.892C394.992 194.189 394.016 193.838 392.61 193.838H383.826L381.718 205.784ZM357.006 200.045L307.349 194.775H357.943L357.006 200.045ZM355.015 211.288L305.358 206.018H355.952L355.015 211.288ZM353.024 222.649L303.367 217.378H353.961L353.024 222.649Z" fill="#A8B8B0"/>
<path d="M255.514 223L286.316 149.802H320.749L325.902 223H302.361L301.893 211.405H283.505L278.938 223H255.514ZM280.343 154.838L232.559 149.802H282.451L280.343 154.838ZM275.541 166.081L227.757 161.045H277.649L275.541 166.081ZM270.857 177.441L222.955 172.288H272.965L270.857 177.441ZM290.767 192.784H300.136V172.288H298.965L290.767 192.784ZM266.055 188.685L218.154 183.531H268.28L266.055 188.685ZM261.37 199.928L213.352 194.775H263.478L261.37 199.928ZM256.568 211.171L208.55 206.018H258.793L256.568 211.171ZM251.766 222.532L203.748 217.378H253.992L251.766 222.532Z" fill="#A8B8B0"/>
<path d="M163.82 223L176.703 149.802H211.838C216.914 149.802 220.896 150.582 223.784 152.144C226.751 153.705 228.82 155.853 229.992 158.585C231.241 161.24 231.866 164.285 231.866 167.72C231.866 169.829 231.631 172.327 231.163 175.216C230.772 178.105 230.031 181.072 228.938 184.117C227.845 187.084 226.283 189.856 224.253 192.432C222.301 195.009 219.802 197.078 216.757 198.64L224.487 223H200.01L194.622 201.216H189.82L186.073 223H163.82ZM172.136 155.072L122.595 149.802H173.073L172.136 155.072ZM170.145 166.315L120.604 161.045H171.082L170.145 166.315ZM192.983 183.18H198.136C200.4 183.18 202.313 182.946 203.874 182.477C205.436 181.931 206.412 180.525 206.802 178.261C207.193 176.309 207.427 174.826 207.505 173.811C207.661 172.796 207.739 172.249 207.739 172.171C207.739 170.453 206.998 169.438 205.514 169.126C204.109 168.736 202.274 168.54 200.01 168.54H195.559L192.983 183.18ZM168.154 177.558L118.613 172.288H169.091L168.154 177.558ZM166.163 188.802L116.622 183.531H167.1L166.163 188.802ZM164.289 200.045L114.631 194.775H165.226L164.289 200.045ZM162.298 211.288L112.64 206.018H163.235L162.298 211.288ZM160.307 222.649L110.649 217.378H161.244L160.307 222.649Z" fill="#A8B8B0"/>
<path fill-rule="evenodd" clip-rule="evenodd" d="M0 222.365C5.19923 180.996 38.9385 149.071 81.8018 149.071C124.665 149.071 153.351 180.996 157.729 222.365H0Z" fill="#A8B8B0"/>
<path d="M158.313 137.891C158.313 160.532 131.263 165.221 108.622 165.221C85.9817 165.221 67.6278 146.867 67.6278 124.226C67.6278 101.585 85.9817 83.2314 108.622 83.2314C131.263 83.2314 158.313 115.25 158.313 137.891Z" fill="#A8B8B0"/>
<path fill-rule="evenodd" clip-rule="evenodd" d="M106.758 150.746C109.191 116.159 105.154 80.0083 94.7636 64.9573C80.5245 44.3302 46.9819 24.9929 17.9376 22.0796L106.758 150.746Z" fill="#A8B8B0"/>
</svg>
