<svg width="107" height="78" viewBox="0 0 107 78" fill="none" xmlns="http://www.w3.org/2000/svg">
<path d="M97.0565 77.6834L98.8954 67.1269H95.7852L96.4436 63.4946H107L106.342 67.1269H103.209L101.37 77.6834H97.0565ZM95.5355 64.5162L85.9326 63.4946H95.7171L95.5355 64.5162ZM95.1723 66.6956L85.5466 65.674H95.3312L95.1723 66.6956ZM97.8965 68.875L88.2709 67.8534H98.0781L97.8965 68.875ZM97.5106 71.0544L87.8849 70.0328H97.6922L97.5106 71.0544ZM97.1246 73.2338L87.499 72.2122H97.3063L97.1246 73.2338ZM96.7387 75.4132L87.1131 74.3916H96.9203L96.7387 75.4132ZM96.3528 77.6153L86.7271 76.5937H96.5344L96.3528 77.6153Z" fill="#A8B8B0"/>
<path d="M82.8245 77.6834L85.3218 63.4946H89.6351L87.1379 77.6834H82.8245ZM84.4364 64.5162L74.8334 63.4946H84.618L84.4364 64.5162ZM84.0731 66.6956L74.4475 65.674H84.2321L84.0731 66.6956ZM83.6872 68.875L74.0616 67.8534H83.8688L83.6872 68.875ZM83.3013 71.0544L73.6756 70.0328H83.4829L83.3013 71.0544ZM82.9153 73.2338L73.2897 72.2122H83.097L82.9153 73.2338ZM82.5294 75.4132L72.9038 74.3916H82.711L82.5294 75.4132ZM82.1435 77.6153L72.5178 76.5937H82.3251L82.1435 77.6153Z" fill="#A8B8B0"/>
<path d="M65.2437 77.6834L67.7409 63.4946H74.7332C75.838 63.4946 76.6326 63.6838 77.1169 64.0622C77.6012 64.4405 77.8433 65.0232 77.8433 65.8102C77.8433 67.021 77.5709 67.9896 77.0261 68.7161C76.4963 69.4274 75.8985 69.8663 75.2326 70.0328L75.2099 70.169C75.9515 70.3052 76.4736 70.6155 76.7763 71.0998C77.0942 71.5841 77.2531 72.1744 77.2531 72.8706C77.2531 73.7181 77.0942 74.5127 76.7763 75.2543C76.4736 75.9807 76.0045 76.571 75.3688 77.025C74.7483 77.4639 73.9613 77.6834 73.0078 77.6834H65.2437ZM66.8556 64.5162L57.2526 63.4946H67.0372L66.8556 64.5162ZM66.4923 66.6956L56.8667 65.674H66.6512L66.4923 66.6956ZM71.1235 68.7161H72.463C72.8565 68.7161 73.1289 68.5647 73.2802 68.262C73.4316 67.9594 73.5072 67.6188 73.5072 67.2405C73.5072 67.0437 73.4618 66.8924 73.371 66.7864C73.2802 66.6653 73.1137 66.6048 72.8716 66.6048H71.5095L71.1235 68.7161ZM66.1064 68.875L56.4807 67.8534H66.288L66.1064 68.875ZM65.7205 71.0544L56.0948 70.0328H65.9021L65.7205 71.0544ZM70.1247 74.3462H71.8046C72.2132 74.3462 72.5084 74.1873 72.69 73.8694C72.8716 73.5516 72.9624 73.1808 72.9624 72.757C72.9624 72.5452 72.9094 72.3711 72.8035 72.2349C72.6975 72.0987 72.5084 72.0306 72.2359 72.0306H70.5333L70.1247 74.3462ZM65.3345 73.2338L55.7089 72.2122H65.5161L65.3345 73.2338ZM64.9486 75.4132L55.3229 74.3916H65.1302L64.9486 75.4132ZM64.5627 77.6153L54.937 76.5937H64.7443L64.5627 77.6153Z" fill="#A8B8B0"/>
<path d="M47.6632 77.6834L50.1604 63.4946H57.1526C58.2574 63.4946 59.052 63.6838 59.5363 64.0622C60.0206 64.4405 60.2628 65.0232 60.2628 65.8102C60.2628 67.021 59.9903 67.9896 59.4455 68.7161C58.9158 69.4274 58.318 69.8663 57.652 70.0328L57.6293 70.169C58.3709 70.3052 58.8931 70.6155 59.1958 71.0998C59.5136 71.5841 59.6725 72.1744 59.6725 72.8706C59.6725 73.7181 59.5136 74.5127 59.1958 75.2543C58.8931 75.9807 58.4239 76.571 57.7882 77.025C57.1677 77.4639 56.3807 77.6834 55.4272 77.6834H47.6632ZM49.275 64.5162L39.672 63.4946H49.4566L49.275 64.5162ZM48.9118 66.6956L39.2861 65.674H49.0707L48.9118 66.6956ZM53.543 68.7161H54.8824C55.2759 68.7161 55.5483 68.5647 55.6997 68.262C55.851 67.9594 55.9267 67.6188 55.9267 67.2405C55.9267 67.0437 55.8813 66.8924 55.7905 66.7864C55.6997 66.6653 55.5332 66.6048 55.291 66.6048H53.9289L53.543 68.7161ZM48.5258 68.875L38.9002 67.8534H48.7074L48.5258 68.875ZM48.1399 71.0544L38.5142 70.0328H48.3215L48.1399 71.0544ZM52.5441 74.3462H54.224C54.6327 74.3462 54.9278 74.1873 55.1094 73.8694C55.291 73.5516 55.3818 73.1808 55.3818 72.757C55.3818 72.5452 55.3289 72.3711 55.2229 72.2349C55.117 72.0987 54.9278 72.0306 54.6554 72.0306H52.9527L52.5441 74.3462ZM47.754 73.2338L38.1283 72.2122H47.9356L47.754 73.2338ZM47.368 75.4132L37.7424 74.3916H47.5496L47.368 75.4132ZM46.9821 77.6153L37.3564 76.5937H47.1637L46.9821 77.6153Z" fill="#A8B8B0"/>
<path d="M28.0807 77.6834L34.0513 63.4946H40.7257L41.7246 77.6834H37.1615L37.0707 75.4359H33.5064L32.6211 77.6834H28.0807ZM32.8935 64.4708L23.6311 63.4946H33.3021L32.8935 64.4708ZM31.9627 66.6502L22.7003 65.674H32.3713L31.9627 66.6502ZM31.0546 68.8523L21.7695 67.8534H31.4633L31.0546 68.8523ZM34.914 71.8263H36.7301V67.8534H36.5031L34.914 71.8263ZM30.1238 71.0317L20.8387 70.0328H30.5552L30.1238 71.0317ZM29.2158 73.2111L19.908 72.2122H29.6244L29.2158 73.2111ZM28.285 75.3905L18.9772 74.3916H28.7163L28.285 75.3905ZM27.3542 77.5926L18.0464 76.5937H27.7855L27.3542 77.5926Z" fill="#A8B8B0"/>
<path d="M10.3067 77.6834L12.8039 63.4946H19.6145C20.5983 63.4946 21.3701 63.646 21.9301 63.9487C22.5052 64.2514 22.9063 64.6676 23.1333 65.1973C23.3755 65.7119 23.4966 66.3021 23.4966 66.968C23.4966 67.3767 23.4512 67.861 23.3604 68.421C23.2847 68.9809 23.1409 69.5561 22.929 70.1463C22.7171 70.7214 22.4144 71.2587 22.0209 71.7582C21.6426 72.2576 21.1583 72.6587 20.568 72.9614L22.0663 77.6834H17.3216L16.2773 73.4608H15.3465L14.6201 77.6834H10.3067ZM11.9185 64.5162L2.3156 63.4946H12.1002L11.9185 64.5162ZM11.5326 66.6956L1.92967 65.674H11.7142L11.5326 66.6956ZM15.9595 69.9647H16.9584C17.3973 69.9647 17.7681 69.9193 18.0708 69.8285C18.3735 69.7225 18.5627 69.4501 18.6383 69.0112C18.714 68.6328 18.7594 68.3453 18.7746 68.1485C18.8048 67.9518 18.82 67.8458 18.82 67.8307C18.82 67.4977 18.6762 67.301 18.3886 67.2405C18.1162 67.1648 17.7605 67.1269 17.3216 67.1269H16.4589L15.9595 69.9647ZM11.1467 68.875L1.54374 67.8534H11.3283L11.1467 68.875ZM10.7607 71.0544L1.1578 70.0328H10.9424L10.7607 71.0544ZM10.3975 73.2338L0.771868 72.2122H10.5791L10.3975 73.2338ZM10.0116 75.4132L0.385934 74.3916H10.1932L10.0116 75.4132ZM9.62565 77.6153L0 76.5937H9.80726L9.62565 77.6153Z" fill="#A8B8B0"/>
<path fill-rule="evenodd" clip-rule="evenodd" d="M31.9246 63.4946C33.4092 51.682 43.0432 42.5662 55.2825 42.5662C67.5218 42.5662 75.7128 51.682 76.9629 63.4946H31.9246Z" fill="#A8B8B0"/>
<path d="M77.1298 39.3737C77.1298 45.8386 69.406 47.1775 62.9411 47.1775C56.4762 47.1775 51.2354 41.9367 51.2354 35.4718C51.2354 29.0069 56.4762 23.7661 62.9411 23.7661C69.406 23.7661 77.1298 32.9088 77.1298 39.3737Z" fill="#A8B8B0"/>
<path fill-rule="evenodd" clip-rule="evenodd" d="M62.4088 43.0446C63.1034 33.1684 61.9505 22.8458 58.9838 18.5481C54.9179 12.6582 45.34 7.13656 37.0466 6.30469L62.4088 43.0446Z" fill="#A8B8B0"/>
</svg>
