<svg width="23" height="24" viewBox="0 0 23 24" fill="none" xmlns="http://www.w3.org/2000/svg">
<path d="M19.6318 15.2322C18.3792 13.9758 16.8883 13.0456 15.2617 12.4826C17.0039 11.2789 18.1484 9.26455 18.1484 6.98677C18.1484 3.30941 15.1659 0.317627 11.5 0.317627C7.83406 0.317627 4.85156 3.30941 4.85156 6.98677C4.85156 9.26455 5.99613 11.2789 7.73833 12.4826C6.11171 13.0456 4.62084 13.9758 3.36829 15.2322C1.19622 17.411 0 20.3079 0 23.3893H1.79688C1.79688 18.0223 6.14967 13.6559 11.5 13.6559C16.8503 13.6559 21.2031 18.0223 21.2031 23.3893H23C23 20.3079 21.8038 17.411 19.6318 15.2322ZM11.5 11.8534C8.82486 11.8534 6.64844 9.67029 6.64844 6.98677C6.64844 4.30325 8.82486 2.1201 11.5 2.1201C14.1751 2.1201 16.3516 4.30325 16.3516 6.98677C16.3516 9.67029 14.1751 11.8534 11.5 11.8534Z" fill="#303030"/>
</svg>
